# xmcd
#
# Track frame offsets: 
#        182
#        18292
#        38767
#        60705
#        80005
#        103692
#        125380
#        153282
#        177167
#        199910
#        218282
#        238217
#        240725
#        264432
#        306720
#
# Disc length: 4167 seconds
#
# Revision: 1
# Processed by: cddbd v1.5.2PL0 Copyright (c) Steve Scherf et al.
# Submitted via: ExactAudioCopy v1.0b3
#
DISCID=ca10450f
DTITLE=Tony Toni Toné - Sons of Soul
DYEAR=1993
DGENRE=R&B
TTITLE0=If I Had No Loot
TTITLE1=What Goes Around Comes Around
TTITLE2=My Ex-Girlfriend
TTITLE3=Tell Me Mama
TTITLE4=Leavin'
TTITLE5=Slow Wine
TTITLE6=(Lay Your Head On My) Pillow
TTITLE7=I Couldn't Keep It To Myself
TTITLE8=Gangsta Groove
TTITLE9=Tonyies! In The Wrong Key
TTITLE10=Dance Hall
TTITLE11=Times Square 2:30 A.M. (Segue)
TTITLE12=Fun
TTITLE13=Anniversary
TTITLE14=Castleers
EXTD=
EXTT0=
EXTT1=
EXTT2=
EXTT3=
EXTT4=
EXTT5=
EXTT6=
EXTT7=
EXTT8=
EXTT9=
EXTT10=
EXTT11=
EXTT12=
EXTT13=
EXTT14=
PLAYORDER=
